<?xml version="1.0" encoding="utf-8"?>
<!-- Generator: Adobe Illustrator 24.3.0, SVG Export Plug-In . SVG Version: 6.00 Build 0)  -->
<svg version="1.1" id="레이어_1" xmlns="http://www.w3.org/2000/svg" xmlns:xlink="http://www.w3.org/1999/xlink" x="0px"
	 y="0px" viewBox="0 0 1024 276.7" style="enable-background:new 0 0 1024 276.7;" xml:space="preserve">
<style type="text/css">
	.st0{fill:#D12123;}
</style>
<g>
	<g id="RhARtezkzUqt887Z3k6uI_2_" transform="matrix(0.9842957565 0 0 0.9842957565 519.3677048543 138.371)">
		<path vector-effect="non-scaling-stroke" class="st0" d="M-505.3,140.4c0-92.3,0-184.5,0-276.8c14.5,0,29-0.1,43.5-0.1
			c0,38-0.1,76-0.1,114c18.1-38.2,36.6-76.2,55.4-114.1c14.5,0,29,0,43.5-0.1c-17.6,32.2-34.9,64.6-51.9,97.1
			c17.1,53.7,34.5,107.4,52.2,160.9c-15.1,1.7-30.3,3.5-45.4,5.4c-12.3-38.2-24.5-76.4-36.5-114.6c-5.8,11.9-11.6,23.8-17.4,35.7
			c0,28.7,0,57.4-0.1,86.1C-476.5,136-490.9,138.2-505.3,140.4z M-293.6,114.4c0.1-35.6,0.2-71.3,0.2-106.9
			c-17.7-47.9-35.1-96-52.2-144.1c15.4,0,30.8,0,46.3-0.1c9.7,30.5,19.5,61,29.4,91.4c0.3,0,0.5,0,0.8,0c9.9-30.5,19.8-61,29.9-91.5
			c14.1,0,28.2,0,42.3,0c-17.8,47.3-35.5,94.7-52.9,142.2c-0.1,35.1-0.2,70.3-0.2,105.4C-264.6,111.9-279.1,113.1-293.6,114.4z
			 M-113,106.6c-16.7,0.7-36.3-2-49.1-13.8c-12.7-10.6-16.9-28.5-16.9-44.3l0,0c0.1-42.6,0.2-85.1,0.2-127.7
			c0.2-16.1,5.1-34,17.1-45.2c12.6-11.7,32.1-16,49.1-15.9l0,0c17.2-0.4,36.4,3.8,49,15.7c11.8,11.1,17.5,28,17,44.3l0,0
			c0,41.8,0,83.6-0.1,125.3c0.5,16.4-5.3,33-17.1,44.6C-76.8,101.6-95.7,106.3-113,106.6L-113,106.6z M-113,72.3
			c13.6-0.4,23.8-10,22.6-24.2l0,0c0-43.5,0.1-87.1,0.1-130.6c1.2-14.1-8.9-23.6-22.5-23.5l0,0c-14.5-1.2-22.6,10.7-22.6,23.9l0,0
			c-0.1,43.8-0.1,87.6-0.2,131.4C-135.6,62.5-127.4,74-113,72.3L-113,72.3z M-8.7,101.2c0-79.4,0-158.7,0-238.1
			c38.4,0,76.7,0,115.1,0c0,11.4,0,22.8,0,34.3c-23.9-0.1-47.7-0.2-71.6-0.2c0,22.1,0,44.3,0,66.4c18.7,0.1,37.5,0.3,56.2,0.5
			c0,11.4,0,22.8,0,34.2C72.3-2.1,53.6-2.3,34.9-2.4c0,34.6,0,69.2,0,103.8C20.4,101.3,5.8,101.2-8.7,101.2z M136.4,104
			c-0.1-80.3-0.3-160.6-0.4-240.9c14.5,0,29,0,43.5,0c0.1,69.4,0.3,138.8,0.4,208.3c23.9,1.2,47.8,2.5,71.6,4.1
			c0,11.8,0.1,23.6,0.1,35.4C213.3,108,174.9,105.7,136.4,104z M281.3,113.3c-0.2-83.3-0.4-166.7-0.6-250c14.5,0,29,0,43.5,0.1
			c0.2,84.7,0.4,169.3,0.6,254C310.3,115.9,295.8,114.6,281.3,113.3z M354,120.4c16.9-42.8,33.5-85.6,49.9-128.6
			c-15.7-42.9-31.8-85.8-48.1-128.5c15.3,0,30.6,0,45.9,0.1c9.9,28.6,19.7,57.3,29.4,86c0.3,0,0.5,0,0.8,0
			c10.1-28.6,20.1-57.2,29.9-85.9c13.7,0,27.4,0.1,41.1,0.1c-15.6,44-31.5,87.8-47.7,131.6c17.1,48.3,33.8,96.7,50.1,145.2
			c-15.2-2.3-30.4-4.6-45.6-6.8c-10.4-32.4-20.9-64.7-31.6-97c-0.3,0-0.5,0-0.8-0.1c-10.6,29.6-21.4,59.1-32.2,88.5
			C381.4,123.5,367.7,121.9,354,120.4z"/>
	</g>
</g>
<desc>Created with Fabric.js 5.3.0</desc>
</svg>
